<?xml version="1.0" encoding="UTF-8"?>
<svg version="1.1" xmlns="http://www.w3.org/2000/svg" width="512" height="512">
<path d="M0 0 C1.54494141 1.10601562 1.54494141 1.10601562 3.12109375 2.234375 C30.33240981 22.12856575 47.50001139 50.50006309 53.4765625 83.6171875 C59.36695922 121.68497526 48.43234305 166.45876614 26 198 C23.95942841 200.33054755 23.17838033 200.94571033 20.125 201.875 C16.39868289 202.02405268 14.91840353 201.25133987 12 199 C10.44373631 195.88747262 10.29520449 193.34629802 11 190 C12.47720001 187.12432223 14.17614286 184.42488615 15.87109375 181.671875 C33.45509844 152.23118026 43.41600137 113.81990596 35.51123047 79.90283203 C27.65727197 50.36099884 10.28992904 25.75013869 -16 10 C-41.90427858 -4.54159756 -70.82338053 -8.27970125 -99.6875 -1.3125 C-116.00378527 3.4398161 -129.81512161 11.33767231 -143 22 C-143.99 22.7425 -144.98 23.485 -146 24.25 C-150.65926509 28.1864982 -154.28359142 33.20126892 -158 38 C-158.61101562 38.78375 -159.22203125 39.5675 -159.8515625 40.375 C-173.46104225 58.76954798 -180.43679727 81.33420772 -180.3125 104.125 C-180.30686035 105.22030029 -180.3012207 106.31560059 -180.29541016 107.4440918 C-179.97087534 129.32769938 -173.54545155 150.4052968 -164 170 C-163.62278809 170.7842334 -163.24557617 171.5684668 -162.85693359 172.37646484 C-150.99843332 196.77204303 -134.98054245 219.67899425 -116.37890625 239.4453125 C-114.52363871 241.43766877 -112.75166262 243.45538634 -110.984375 245.5234375 C-106.33545223 250.85593358 -101.34029835 255.84574593 -96.34008789 260.84521484 C-94.69581076 262.49167819 -93.05971926 264.14599084 -91.42382812 265.80078125 C-85.26742898 271.98884447 -78.99023382 277.73943991 -72 283 C-68.67235706 281.41209351 -66.28506681 279.63178158 -63.5625 277.125 C-62.68980469 276.32449219 -61.81710938 275.52398437 -60.91796875 274.69921875 C-59.95503906 273.80847656 -58.99210938 272.91773438 -58 272 C-56.91326909 271.00595403 -55.82601262 270.01248237 -54.73828125 269.01953125 C-46.78595921 261.74427345 -38.99175451 254.43228303 -31.96484375 246.2421875 C-30.06795458 244.07754658 -28.11533148 241.97324814 -26.14819336 239.87255859 C-20.58267634 233.91151767 -15.47906069 227.68918515 -10.5078125 221.2265625 C-2.78896321 211.23852843 -2.78896321 211.23852843 1.8125 210.625 C5 211 5 211 7.875 213.125 C10.43468829 216.58810769 10.53931258 217.78308922 10 222 C8.59377344 224.286953 7.26751878 226.15502317 5.5625 228.1875 C5.10875 228.75065918 4.655 229.31381836 4.1875 229.89404297 C3.25262772 231.05058935 2.31135567 232.20199174 1.36376953 233.34814453 C0.12116457 234.85324034 -1.09890278 236.37687144 -2.31640625 237.90234375 C-6.9457205 243.67449408 -11.80469039 249.16727742 -16.8359375 254.58984375 C-18.69220978 256.65720836 -20.3791142 258.74644587 -22 261 C-20.96101562 261.36351562 -19.92203125 261.72703125 -18.8515625 262.1015625 C-6.02403594 266.68293202 8.9274799 272.42752354 15.5 285.3125 C18.36527746 292.35630709 19.36640179 298.34037893 16.4375 305.5625 C9.49502415 319.30430787 -3.42989462 325.09531034 -17.375 329.8125 C-31.32048046 334.34224093 -45.69975947 337.11433322 -60.390625 337.203125 C-61.16911301 337.21009399 -61.94760101 337.21706299 -62.74967957 337.22424316 C-65.24984192 337.24154953 -67.74978024 337.24796323 -70.25 337.25 C-71.10248322 337.25100708 -71.95496643 337.25201416 -72.83328247 337.25305176 C-85.44402492 337.2429583 -97.6594911 336.82992091 -110 334 C-110.99531738 333.7831958 -110.99531738 333.7831958 -112.01074219 333.56201172 C-129.68049071 329.63007901 -147.04416326 323.19853823 -158 308 C-161.10006989 301.83025305 -161.12667662 294.27851881 -159.3828125 287.65625 C-153.35235118 274.20778758 -139.10874997 268.11310202 -126.22265625 263.1015625 C-123 262 -123 262 -120 262 C-124.4338083 256.46309447 -128.8997627 251.05123685 -133.75 245.875 C-168.21064444 208.27188567 -197.5735424 156.97739537 -197.3125 104.75 C-197.30512817 102.98402466 -197.30512817 102.98402466 -197.29760742 101.18237305 C-197.17234932 91.81242438 -196.29252872 83.07767422 -194 74 C-193.83371094 73.34032227 -193.66742188 72.68064453 -193.49609375 72.00097656 C-190.7101269 61.30595939 -186.29404459 51.67186436 -181 42 C-180.48308594 41.05125 -179.96617187 40.1025 -179.43359375 39.125 C-175.8791162 32.92645605 -171.59653969 27.45671085 -167 22 C-166.41089844 21.28714844 -165.82179687 20.57429688 -165.21484375 19.83984375 C-144.05862434 -5.17172316 -112.22401776 -18.76147076 -80.125 -21.75 C-52.13347028 -23.20164641 -22.86467668 -16.82161685 0 0 Z M-141.375 289.5625 C-143.37731701 291.85013444 -143.99825343 292.99355113 -144.8125 296 C-143.16979349 302.06537788 -139.87036363 304.8374015 -134.70703125 308.046875 C-115.21348379 318.79984866 -93.24875501 321.41733722 -71.3125 321.3125 C-70.52007904 321.31067719 -69.72765808 321.30885437 -68.91122437 321.30697632 C-57.05979247 321.26109904 -45.5571992 320.85820234 -34 318 C-32.89470947 317.73461426 -32.89470947 317.73461426 -31.76708984 317.46386719 C-19.98226504 314.54974651 -6.81744843 310.56268296 0.875 300.5625 C2.16330846 298.09444905 2.16330846 298.09444905 2 295.5625 C-0.58666496 288.93417105 -5.33719874 285.77300598 -11.5 282.875 C-12.19907471 282.53734619 -12.89814941 282.19969238 -13.6184082 281.85180664 C-25.43592511 275.87384982 -25.43592511 275.87384982 -38 276 C-40.02628019 277.58070685 -40.02628019 277.58070685 -41.8125 279.625 C-45.68976139 283.6892907 -49.68786405 287.40188656 -54 291 C-54.80244141 291.6811084 -54.80244141 291.6811084 -55.62109375 292.37597656 C-57.44239004 293.91331801 -59.28137349 295.42703866 -61.125 296.9375 C-61.71104004 297.43483643 -62.29708008 297.93217285 -62.90087891 298.44458008 C-65.79671839 300.77749841 -67.45593145 301.92255959 -71.2109375 302.45703125 C-74.06801523 301.98885465 -75.29558603 301.55928316 -77.5 299.75 C-78.17160156 299.20472656 -78.84320313 298.65945313 -79.53515625 298.09765625 C-80.75525391 297.05931641 -80.75525391 297.05931641 -82 296 C-83.10269381 295.08182612 -84.20557277 294.16387457 -85.30859375 293.24609375 C-91.59420149 287.96844217 -97.59343315 282.62510449 -103.1328125 276.546875 C-111.25798718 269.81555874 -134.96440511 283.73234127 -141.375 289.5625 Z " fill="#000000" transform="translate(197,175)"/>
<path d="M0 0 C1.19407471 0.00563965 2.38814941 0.0112793 3.6184082 0.01708984 C12.04723574 0.13330192 19.62784955 0.68198832 27.6875 3.3125 C28.32155762 3.51649414 28.95561523 3.72048828 29.60888672 3.93066406 C43.29067986 8.42260762 54.64601188 15.03152645 65.6875 24.3125 C66.51894531 24.95058594 67.35039062 25.58867187 68.20703125 26.24609375 C85.32482905 40.50643239 96.1335106 64.50877371 98.6875 86.3125 C100.67380052 114.33172305 94.15081936 139.8070399 80.6875 164.3125 C80.36668457 164.9111084 80.04586914 165.5097168 79.71533203 166.12646484 C69.64884463 184.88418058 56.24242214 201.84197538 41.6875 217.3125 C42.73808594 217.7971875 43.78867187 218.281875 44.87109375 218.78125 C65.59821568 228.57701225 65.59821568 228.57701225 70.09375 239.25390625 C72.08914024 246.17213426 70.8015012 251.72059473 67.359375 257.95703125 C58.20885102 270.84900779 39.89687848 275.4535067 25.1875 278.0625 C-0.36581719 282.10375962 -33.94137473 281.79751505 -56.625 267.25 C-62.61626335 262.7448508 -67.89490188 257.56529437 -70.3125 250.3125 C-70.87687878 243.76570618 -69.91113386 238.88111771 -66.3125 233.3125 C-60.50185321 226.59278797 -53.28773917 222.93655948 -45.3125 219.3125 C-43.9760783 218.65204616 -42.64138495 217.98799021 -41.3125 217.3125 C-41.95574219 216.64347656 -42.59898437 215.97445312 -43.26171875 215.28515625 C-51.2727816 206.77125921 -58.42813612 197.75637834 -65.3125 188.3125 C-65.98345703 187.39476807 -65.98345703 187.39476807 -66.66796875 186.45849609 C-84.01768777 162.41578931 -98.19670027 132.77299474 -98.5625 102.625 C-98.58828125 101.34238281 -98.6140625 100.05976562 -98.640625 98.73828125 C-98.29662756 95.14678414 -97.91364753 93.75817664 -95.3125 91.3125 C-91.88359774 90.43968851 -89.41990423 89.98327171 -86 91 C-83.84010731 92.67991653 -83.30653966 93.73292602 -82.3125 96.3125 C-81.97520282 99.17520174 -81.71479468 102.00364096 -81.5 104.875 C-78.81931408 133.75481197 -65.62811366 159.45614918 -48.3125 182.3125 C-47.87679687 182.89241699 -47.44109375 183.47233398 -46.9921875 184.06982422 C-41.0500446 191.9427292 -34.72437258 199.31337308 -27.94140625 206.47265625 C-25.3125 209.3125 -25.3125 209.3125 -23.10546875 212.078125 C-21.40110432 214.39161379 -21.40110432 214.39161379 -19.0625 216 C-18.485 216.433125 -17.9075 216.86625 -17.3125 217.3125 C-17.3125 217.9725 -17.3125 218.6325 -17.3125 219.3125 C-16.74402344 219.55097656 -16.17554688 219.78945312 -15.58984375 220.03515625 C-11.96977256 222.065625 -9.46337748 225.12887803 -6.62890625 228.12109375 C-4.33097833 230.29501882 -2.07750341 231.79589319 0.6875 233.3125 C3.04657395 231.19393902 5.40368043 229.07327275 7.7578125 226.94921875 C9.68390108 225.21573903 11.61604212 223.48895651 13.5546875 221.76953125 C18.29977436 217.53049936 22.79998504 213.290576 26.89453125 208.41796875 C29.0054373 205.9391488 31.22036041 203.57170819 33.4375 201.1875 C52.8121283 179.85199542 69.40572699 155.099683 77.6875 127.3125 C78.00074219 126.30485596 78.00074219 126.30485596 78.3203125 125.27685547 C84.90264577 103.61868769 83.27385949 80.82364508 72.74316406 60.77685547 C71.74306405 58.94425715 70.72156933 57.12609851 69.6875 55.3125 C68.97980469 54.03632812 68.97980469 54.03632812 68.2578125 52.734375 C57.5401325 35.10410849 39.01122954 23.75155616 19.3894043 18.72363281 C12.9170621 17.27975808 6.61881015 16.92685283 0 16.9375 C-1.57503296 16.93991699 -1.57503296 16.93991699 -3.18188477 16.94238281 C-15.0719066 17.12874965 -25.70230425 19.89207391 -36.3125 25.3125 C-37.1478125 25.69664063 -37.983125 26.08078125 -38.84375 26.4765625 C-54.73757773 34.28646061 -66.18947424 48.49715001 -74.16894531 63.95605469 C-76.81348522 68.9518354 -76.81348522 68.9518354 -79.35546875 70.7890625 C-82.59678568 71.65600156 -85.10028426 71.13015492 -88.3125 70.3125 C-90.82561281 68.12365981 -91.25943097 66.89211336 -91.5625 63.58203125 C-90.74147599 52.84457662 -81.8104944 42.36409458 -75.3125 34.3125 C-74.61833984 33.40564453 -74.61833984 33.40564453 -73.91015625 32.48046875 C-56.77098326 10.6092682 -26.90033947 -0.13301008 0 0 Z M-41.3125 235.3125 C-47.18325264 238.15892552 -51.19340991 240.44185591 -54.3125 246.3125 C-45.8226055 258.01478702 -31.2454633 260.7114285 -17.62890625 262.90625 C5.45858864 265.51982285 31.13497754 264.32674346 51.19921875 251.5234375 C52.97624195 250.19931236 52.97624195 250.19931236 54.6875 247.3125 C54.48162649 244.74159182 53.97902035 243.61695989 52.19140625 241.75 C47.72839923 238.44539923 43.37390249 235.99743339 38.1171875 234.16796875 C35.6875 233.3125 35.6875 233.3125 33.6953125 232.23828125 C31.35475114 231.1651193 30.24453013 230.85507064 27.6875 231.3125 C23.82613783 234.11483879 20.57043206 237.38477726 17.23095703 240.77880859 C14.86028658 243.13447955 12.3695985 245.28397079 9.8125 247.4375 C8.96945312 248.16195312 8.12640625 248.88640625 7.2578125 249.6328125 C4.17501991 251.6474034 2.38100717 252.30324309 -1.3125 252.3125 C-7.19714078 249.72190527 -11.38159119 245.70867905 -15.9375 241.25 C-25.20383649 232.23485937 -28.75666894 230.19123403 -41.3125 235.3125 Z " fill="#000000" transform="translate(413.3125,-0.3125)"/>
<path d="M0 0 C10.47491701 9.69762635 16.52232829 23.30554671 17.53515625 37.4140625 C17.94532507 52.35847437 13.16805655 66.74227277 3.5 78.25 C-7.91503362 90.05941098 -22.37028721 95.9596954 -38.6875 96.3125 C-54.42426207 95.64989949 -68.81037828 89.16334432 -79.703125 77.76953125 C-88.71205689 66.6147711 -92.86432524 54.92718236 -93.0625 40.6875 C-93.07667969 39.89964111 -93.09085937 39.11178223 -93.10546875 38.30004883 C-93.05805162 32.62125479 -92.09876017 27.49050041 -89.6875 22.3125 C-87.4375 20.125 -87.4375 20.125 -84.6875 19.3125 C-80.84554573 20.02879656 -78.47302878 20.52697122 -75.6875 23.3125 C-75.52392578 25.65991211 -75.52392578 25.65991211 -75.6328125 28.58984375 C-75.65730469 29.66169922 -75.68179688 30.73355469 -75.70703125 31.83789062 C-75.77626611 34.07776642 -75.85411142 36.31739597 -75.94140625 38.55664062 C-76.18163525 50.43384482 -72.93249101 59.66201763 -64.6875 68.3125 C-56.4798966 76.10276763 -46.85618883 78.95132386 -35.68188477 78.85766602 C-28.94503105 78.55505743 -23.53426625 76.54077584 -17.6875 73.3125 C-17.01203125 72.9515625 -16.3365625 72.590625 -15.640625 72.21875 C-8.83411472 68.00232771 -3.6209583 60.11752361 -1.1875 52.55859375 C1.45232673 40.6999971 0.38053266 30.15238392 -5.6875 19.5625 C-12.08849263 10.21759093 -21.13646827 4.95853873 -32.08203125 2.8515625 C-43.27561225 1.26507071 -51.8172172 4.48208823 -61.42578125 9.94921875 C-65.1326897 11.4985733 -66.88181222 11.45255408 -70.6875 10.3125 C-73.40759268 7.95508635 -73.66637341 6.45774531 -74.1875 2.875 C-73.69818236 -0.61138822 -73.22951253 -2.13835389 -70.56640625 -4.4296875 C-63.85294183 -8.92394019 -56.63543121 -12.2542665 -48.6875 -13.6875 C-47.68203125 -13.86925781 -47.68203125 -13.86925781 -46.65625 -14.0546875 C-29.21394445 -16.64575463 -13.38584529 -11.0568891 0 0 Z " fill="#000000" transform="translate(163.6875,238.6875)"/>
<path d="M0 0 C9.37431885 7.56203746 15.40808596 16.99910256 17.51953125 28.9375 C18.87506915 43.1073895 15.72634618 55.02905407 6.875 66.125 C-0.4674532 74.12188924 -10.71363284 79.8028722 -21.6484375 80.43359375 C-23.22378106 80.45726335 -24.79961366 80.45812699 -26.375 80.4375 C-27.20644531 80.42847656 -28.03789062 80.41945313 -28.89453125 80.41015625 C-40.55155152 80.08281403 -49.34421444 75.81643666 -58 68 C-66.87607739 58.17078678 -71.1047016 47.22730199 -71 34 C-70.4129148 23.27797026 -65.55911296 12.32018982 -58.1875 4.5 C-41.42277345 -10.49832816 -18.86268596 -12.02837946 0 0 Z M-49.6796875 20.1484375 C-53.94634922 26.13186252 -55.59932289 32.68836642 -54.59765625 39.89453125 C-52.8888949 47.93278731 -50.29784501 53.94063058 -43.4921875 58.78515625 C-35.60212974 63.65030848 -29.29777724 65.04102446 -20 64 C-11.44527025 61.32855877 -5.49944851 56.74605656 -1 49 C2.48252189 41.3360418 2.70676429 34.17064022 -0.0625 26.24609375 C-3.01315688 19.17681165 -8.32924637 13.35193977 -15.203125 9.890625 C-28.46971882 4.97363568 -40.86018981 9.29722306 -49.6796875 20.1484375 Z " fill="#000000" transform="translate(440,62)"/>
<path d="M0 0 C2.67592112 1.55376065 2.93799486 2.81811827 3.9375 5.75 C4.04019726 11.0902573 1.62482614 14.23373465 -1.83984375 18 C-4.93064507 20.94249032 -7.00340088 22.80834632 -11.25 23.625 C-14.40667169 22.90757462 -15.86358681 22.45291885 -18 20 C-19.02201927 16.32073064 -19.4485722 14.05546399 -17.9375 10.5 C-9.02595074 -0.99877324 -9.02595074 -0.99877324 0 0 Z " fill="#000000" transform="translate(284,251)"/>
<path d="M0 0 C5.70371683 1.98573845 10.90729755 5.58780813 13.859375 10.859375 C14.15437918 14.25192307 13.90917597 15.83904301 12.109375 18.734375 C9.30804236 21.06881887 7.92734446 21.80179007 4.265625 21.5 C-1.29434197 20.15129514 -6.92309243 16.77921228 -10.08203125 11.890625 C-11.17167516 8.7656085 -10.97859273 6.94271962 -9.703125 3.921875 C-6.74931305 0.35692955 -4.60580645 -0.82668321 0 0 Z " fill="#000000" transform="translate(474.890625,343.265625)"/>
<path d="M0 0 C0.71220703 -0.03738281 1.42441406 -0.07476562 2.15820312 -0.11328125 C6.18331272 -0.18030435 7.96121157 0.19718071 11.16015625 2.7109375 C13.1875 5.375 13.1875 5.375 13.8125 8.375 C12.95882379 12.47264579 11.45270514 13.78950818 8.1875 16.375 C5.2577022 16.85388066 3.02645587 17.03589951 0.125 16.9375 C-0.58205078 16.94845703 -1.28910156 16.95941406 -2.01757812 16.97070312 C-5.48147647 16.92191582 -7.46472974 16.63917164 -10.25 14.5234375 C-12.29129374 11.7166586 -12.74176825 9.84085593 -12.8125 6.375 C-9.83350197 -0.00856722 -6.54269966 0.12817399 0 0 Z " fill="#000000" transform="translate(319.8125,334.625)"/>
<path d="M0 0 C1.31613281 -0.02578125 2.63226563 -0.0515625 3.98828125 -0.078125 C7.8241309 0.26211932 9.6718701 0.91896901 12.6875 3.25 C14.13180855 6.13861709 14.06438506 8.04647701 13.6875 11.25 C10.90580823 14.91946574 9.43757772 16.12739846 4.83984375 16.87890625 C3.43472702 16.88285691 2.02931493 16.86012571 0.625 16.8125 C-0.08205078 16.82345703 -0.78910156 16.83441406 -1.51757812 16.84570312 C-4.98147647 16.79691582 -6.96472974 16.51417164 -9.75 14.3984375 C-11.79129374 11.5916586 -12.24176825 9.71585593 -12.3125 6.25 C-9.40331544 0.01603309 -6.39528057 0.0487724 0 0 Z " fill="#000000" transform="translate(438.3125,334.75)"/>
<path d="M0 0 C4.72778484 3.26369663 8.35935872 6.20010307 10.3125 11.6875 C9.92711613 15.77256903 9.04494968 17.27557134 6 20 C3.39325798 21.23096151 1.89748559 21.27265385 -0.8515625 20.4375 C-6.43597487 18.02261897 -10.91602726 14.28118015 -14 9 C-14.12522191 5.18073188 -13.88379197 3.20517087 -11.625 0.125 C-7.56972536 -2.68249783 -4.19609357 -2.01796866 0 0 Z " fill="#000000" transform="translate(285,323)"/>
<path d="M0 0 C3.45337781 2.53247706 4.78785721 4.13511017 5.8125 8.3125 C5.874375 9.529375 5.93625 10.74625 6 12 C6.03867187 12.68835938 6.07734375 13.37671875 6.1171875 14.0859375 C6.34681154 20.94914499 6.34681154 20.94914499 4 24 C1.43734514 25.92199114 0.16801051 26.01028636 -3.0625 25.8125 C-6.17979276 24.95027009 -7.23082452 24.65376321 -9 22 C-11.00447337 16.72507007 -11.70135315 11.58988932 -11 6 C-8.46060477 0.45950132 -6.0586608 -0.71278362 0 0 Z " fill="#000000" transform="translate(267,286)"/>
<path d="M0 0 C1.05477539 -0.04253906 1.05477539 -0.04253906 2.13085938 -0.0859375 C6.10552556 -0.10083784 7.8814089 0.35727162 11.03125 2.83984375 C13.0625 5.5 13.0625 5.5 13.625 8.5625 C12.94428485 12.11734581 11.86177541 13.277046 9.0625 15.5 C6.1211446 16.9706777 3.46022595 16.67048999 0.1875 16.6875 C-1.66488281 16.70876953 -1.66488281 16.70876953 -3.5546875 16.73046875 C-6.70168172 16.51606614 -8.35526576 16.22559806 -10.9375 14.5 C-13.0190902 11.82366974 -12.93337591 10.38246332 -12.8125 6.9375 C-11.9375 3.5 -11.9375 3.5 -10.37890625 1.81640625 C-6.97224082 -0.02046775 -3.77631563 -0.01376961 0 0 Z " fill="#000000" transform="translate(325.9375,462.5)"/>
<path d="M0 0 C1.54586876 3.09173752 1.29359521 5.59429552 1 9 C-1.23572867 12.0617368 -2.53359524 12.90327243 -6.27734375 13.6796875 C-8.08912109 13.77636719 -8.08912109 13.77636719 -9.9375 13.875 C-11.14277344 13.95492188 -12.34804688 14.03484375 -13.58984375 14.1171875 C-18.06981192 13.9632367 -20.81965453 13.18034547 -24 10 C-24.98070061 6.97617312 -25.11462421 5.37914161 -24.1875 2.3125 C-23 0 -23 0 -21 -2 C-13.69172437 -3.78250625 -6.46865417 -4.20462521 0 0 Z " fill="#000000" transform="translate(417,465)"/>
<path d="M0 0 C2.5625 2 2.5625 2 4 5 C3.89296221 11.42226717 2.53036215 19.12062238 -1.8125 24.0625 C-4.79742403 25.34175316 -6.78452351 25.46892366 -10 25 C-12.86801532 22.98463788 -13.82510812 21.66707393 -14.71484375 18.2734375 C-15.04627116 14.46883241 -14.40405858 11.8794306 -13.25 8.25 C-12.90453125 7.12078125 -12.5590625 5.9915625 -12.203125 4.828125 C-9.8902657 -0.60859621 -5.35511517 -1.02155812 0 0 Z " fill="#000000" transform="translate(508,411)"/>
<path d="M0 0 C4.54284288 0.79698998 5.80969012 1.95458683 8.5625 5.625 C11.34245266 10.86113574 12.34589168 15.74956239 11.5625 21.625 C8.98877616 24.65291041 7.41003406 25.48662709 3.5 26.125 C-0.32197513 25.47445104 -1.17743257 24.7890944 -3.4375 21.625 C-5.94315091 16.57913748 -8.50064548 11.33940697 -7.4375 5.625 C-5.35210259 1.78786876 -4.33645599 0.78844654 0 0 Z " fill="#000000" transform="translate(498.4375,371.375)"/>
<path d="M0 0 C0.72058594 -0.02900391 1.44117188 -0.05800781 2.18359375 -0.08789062 C5.69811053 -0.12996127 7.72360224 0.02063191 10.6015625 2.11328125 C12.82969009 5.32978339 12.67039618 7.49472674 12.125 11.3125 C10.25791495 13.67747439 8.80438569 14.97280715 6.125 16.3125 C3.65137238 16.46311901 1.22458185 16.54375317 -1.25 16.5625 C-1.92289062 16.583125 -2.59578125 16.60375 -3.2890625 16.625 C-6.37801056 16.64932243 -8.55001452 16.4881394 -11.2890625 15.0078125 C-13.84332856 12.27739016 -13.875 9.96921789 -13.875 6.3125 C-10.05453393 0.25245037 -6.74836892 0.08958012 0 0 Z " fill="#000000" transform="translate(311.875,237.6875)"/>
<path d="M0 0 C3.4375 2 3.4375 2 5 5 C5.33385523 7.90850152 5.25896513 10.33723305 4 13 C-0.02090114 16.32921493 -4.03586187 16.51842947 -9.0625 16.5 C-9.76955078 16.52835937 -10.47660156 16.55671875 -11.20507812 16.5859375 C-15.00734194 16.6002183 -16.67001787 16.30420228 -19.5 13.6953125 C-21.54346667 10.02345833 -21.10803119 7.98891228 -20 4 C-15.6132665 -1.98190932 -6.58328309 -0.66063284 0 0 Z " fill="#000000" transform="translate(453,462)"/>
<path d="M0 0 C1.96066406 -0.04253906 1.96066406 -0.04253906 3.9609375 -0.0859375 C8.14550021 0.4404787 9.77959825 1.30325948 12.625 4.375 C13.2890625 6.375 13.2890625 6.375 13.25 8.375 C13.26289063 9.035 13.27578125 9.695 13.2890625 10.375 C12.21553791 13.60820347 10.50974644 14.6418717 7.625 16.375 C4.77136573 16.76900433 2.39780519 16.93737152 -0.4375 16.875 C-1.14455078 16.89046875 -1.85160156 16.9059375 -2.58007812 16.921875 C-6.07160091 16.8956476 -8.01680042 16.65111217 -10.8125 14.49609375 C-12.66978772 11.97482567 -13.29846913 10.51276556 -13.375 7.375 C-10.34167879 0.8533594 -6.8890177 0.06767208 0 0 Z " fill="#000000" transform="translate(286.375,462.625)"/>
<path d="M0 0 C1.21429688 -0.03738281 2.42859375 -0.07476562 3.6796875 -0.11328125 C7.71557027 0.38548431 9.28849423 1.46029402 12.125 4.3125 C13.58796477 7.78704134 13.23775119 9.03330658 11.8125 12.5625 C10.125 15.3125 10.125 15.3125 8.125 16.3125 C5.31809274 16.48974777 2.55869203 16.59000799 -0.25 16.625 C-1.01828125 16.65400391 -1.7865625 16.68300781 -2.578125 16.71289062 C-6.34064038 16.75520265 -8.25966416 16.75366613 -11.38671875 14.51171875 C-13.55012208 11.31487866 -13.34654881 9.08489048 -12.875 5.3125 C-9.87254008 -0.12052271 -5.7814152 0.11611722 0 0 Z " fill="#000000" transform="translate(246.875,462.6875)"/>
<path d="M0 0 C1.30066406 0.02191406 2.60132813 0.04382813 3.94140625 0.06640625 C7.06905749 0.39839158 8.86200401 0.71428167 11.4375 2.4375 C13.35949114 5.00015486 13.44778636 6.26948949 13.25 9.5 C12.42120706 12.49640525 11.86633312 13.59158683 9.4375 15.4375 C6.4504054 16.9310473 3.4001552 16.74381228 0.125 16.8125 C-1.84919922 16.88597656 -1.84919922 16.88597656 -3.86328125 16.9609375 C-8.4078602 16.31788198 -9.79424556 15.01994692 -12.5625 11.4375 C-13.1875 8.4375 -13.1875 8.4375 -12.5625 5.4375 C-8.72726811 0.50027331 -6.15568345 -0.18949969 0 0 Z " fill="#000000" transform="translate(359.5625,334.5625)"/>
<path d="M0 0 C0.75925781 -0.00708984 1.51851563 -0.01417969 2.30078125 -0.02148438 C5.59077448 0.01596739 8.05909672 0.19719727 10.97265625 1.78515625 C13.25292281 4.25204309 13.4336373 6.11936516 13.5 9.4375 C12.28872108 12.24256698 11.3382369 13.89930316 8.75390625 15.55859375 C3.11866315 17.75604557 -3.6371705 17.13211439 -9.1875 15.0625 C-11.5 13.4375 -11.5 13.4375 -12.5 11.4375 C-13.07013981 5.27999006 -13.07013981 5.27999006 -11.01171875 2.23828125 C-7.4685583 -0.30199397 -4.19163764 -0.11030625 0 0 Z " fill="#000000" transform="translate(365.5,462.5625)"/>
<path d="M0 0 C2.9236459 2.5488195 3.84909176 4.19515606 4.5625 8 C3.79860037 12.07413135 2.13526684 13.34183899 -1 16 C-1.94875 16.9075 -2.8975 17.815 -3.875 18.75 C-7.48891654 21.35201991 -9.55620881 22.0807962 -14 22 C-16.9375 20.5625 -16.9375 20.5625 -19 18 C-19.66954905 14.59645901 -19.94391787 13.18201244 -19 10 C-14.36873993 3.49817528 -8.20715206 -1.19376757 0 0 Z " fill="#000000" transform="translate(489,445)"/>
<path d="M0 0 C1.2890625 -0.0103125 2.578125 -0.020625 3.90625 -0.03125 C8.00908212 0.57525562 9.68863487 1.48706529 12.5 4.5 C13.1640625 6.5 13.1640625 6.5 13.125 8.5 C13.13789063 9.16 13.15078125 9.82 13.1640625 10.5 C12.09734645 13.71269775 10.35268625 14.76556676 7.5 16.5 C3.90625 17.03125 3.90625 17.03125 0 17 C-1.2890625 17.0103125 -2.578125 17.020625 -3.90625 17.03125 C-8.00908212 16.42474438 -9.68863487 15.51293471 -12.5 12.5 C-13.1640625 10.5 -13.1640625 10.5 -13.125 8.5 C-13.13789063 7.84 -13.15078125 7.18 -13.1640625 6.5 C-11.13013511 0.37428927 -5.6525857 -0.04522069 0 0 Z " fill="#000000" transform="translate(399.5,334.5)"/>
</svg>
