<?xml version="1.0" ?><svg data-name="Capa 1" id="Capa_1" viewBox="0 0 20 19.84" xmlns="http://www.w3.org/2000/svg"><path d="M15.6,3.89H4.4A2.35,2.35,0,0,0,2.05,6.24v.1A2.36,2.36,0,0,0,4.4,8.69s0,0,.06,0V14.3A1.66,1.66,0,0,0,6.12,16h7.77a1.66,1.66,0,0,0,1.66-1.65V8.67l0,0A2.36,2.36,0,0,0,18,6.34v-.1A2.35,2.35,0,0,0,15.6,3.89ZM13.89,15.36H6.12A1.07,1.07,0,0,1,5.06,14.3V6.71h2.1V7.78a.28.28,0,0,0,.56,0V6.71h4.51v1.5a.28.28,0,1,0,.55,0V6.71H15V14.3A1.07,1.07,0,0,1,13.89,15.36Zm3.46-9A1.76,1.76,0,0,1,15.6,8.09l0,0V6.71h.62a.3.3,0,0,0,.3-.3.29.29,0,0,0-.3-.3H3.84a.3.3,0,0,0-.3.3.31.31,0,0,0,.3.3h.62v1.4l-.06,0A1.76,1.76,0,0,1,2.65,6.34v-.1A1.75,1.75,0,0,1,4.4,4.49H15.6a1.75,1.75,0,0,1,1.75,1.75Z"/><path d="M7.43,9.52a.3.3,0,0,0-.3.3v3.25a.3.3,0,0,0,.3.29.29.29,0,0,0,.3-.29V9.82A.29.29,0,0,0,7.43,9.52Z"/><path d="M13.09,10.56a1.16,1.16,0,1,0-2.31,0,1.13,1.13,0,0,0,.42.87,1.16,1.16,0,1,0,1.46,0A1.13,1.13,0,0,0,13.09,10.56Zm-.56,1.75a.6.6,0,1,1-.61-.6h0A.6.6,0,0,1,12.53,12.31Zm-.6-1.15h0a.6.6,0,1,1,.61-.6.6.6,0,0,1-.61.6Z"/></svg>